<svg width="471" height="456" viewBox="0 0 471 456" fill="none" xmlns="http://www.w3.org/2000/svg" xmlns:c2pa="http://c2pa.org/manifest"><metadata><c2pa:manifest>AAAWgmp1bWIAAAAeanVtZGMycGEAEQAQgAAAqgA4m3EDYzJwYQAAABZcanVtYgAAAEdqdW1kYzJtYQARABCAAACqADibcQN1cm46YzJwYToxZmY2ODU0ZS0zN2U4LTQxZTMtOTA4Ny03N2RmZDA2NTZiZmUAAAADl2p1bWIAAAApanVtZGMyYXMAEQAQgAAAqgA4m3EDYzJwYS5hc3NlcnRpb25zAAAAALxqdW1iAAAARGp1bWRjYm9yABEAEIAAAKoAOJtxE2MycGEuaW5ncmVkaWVudC52MwAAAAAYYzJzaChom9HuIVaHPS0EH5i9IL0AAABwY2JvcqNpZGM6Zm9ybWF0bWltYWdlL3N2Zyt4bWxqaW5zdGFuY2VJRHgseG1wOmlpZDo1OWZiNzQxZC1lOWU4LTRmODQtYjYyOS02MGQwNGExYWQ5OTZscmVsYXRpb25zaGlwaHBhcmVudE9mAAAB4mp1bWIAAABBanVtZGNib3IAEQAQgAAAqgA4m3ETYzJwYS5hY3Rpb25zLnYyAAAAABhjMnNoSiUXHlIkG7DtTCnwUceLLwAAAZljYm9yomdhY3Rpb25zgqJmYWN0aW9ua2MycGEub3BlbmVkanBhcmFtZXRlcnOha2luZ3JlZGllbnRzgaJjdXJseC1zZWxmI2p1bWJmPWMycGEuYXNzZXJ0aW9ucy9jMnBhLmluZ3JlZGllbnQudjNkaGFzaFggSOYnq0ZpacbU32Zux1imwLtrCbHip54pkBMqbYmdsYekZmFjdGlvbngdY29tLmFudGhyb3BpYy5jbGF1ZGUucHJvdmlkZWRqcGFyYW1ldGVyc6F4H2NvbS5hbnRocm9waWMub3JpZ2luLWNvbmZpZGVuY2VndW5rbm93bmtkZXNjcmlwdGlvbnhmQ2xhdWRlIHByb3ZpZGVkIHRoaXMgZmlsZSBhdCB0aGUgcmVxdWVzdCBvZiBhIHVzZXIgYW5kIG1heSBoYXZlIGNyZWF0ZWQgb3IgbW9kaWZpZWQgdGhlIGZpbGUgY29udGVudHMubXNvZnR3YXJlQWdlbnShZG5hbWVmQ2xhdWRlcmFsbEFjdGlvbnNJbmNsdWRlZPUAAADIanVtYgAAAEBqdW1kY2JvcgARABCAAACqADibcRNjMnBhLmhhc2guZGF0YQAAAAAYYzJzaGeD+8nB83XHgo54Xw6VHVcAAACAY2JvcqVjYWxnZnNoYTI1NmNwYWRNAAAAAAAAAAAAAAAAAGRoYXNoWCD+36tjn8a2hjJnXZ2cgDIoZ82DCo06Nf/WxxO622rNS2RuYW1lbmp1bWJmIG1hbmlmZXN0amV4Y2x1c2lvbnOBomVzdGFydBiiZmxlbmd0aBkeBAAAAj5qdW1iAAAAJ2p1bWRjMmNsABEAEIAAAKoAOJtxA2MycGEuY2xhaW0udjIAAAACD2Nib3KlY2FsZ2ZzaGEyNTZpc2lnbmF0dXJleE1zZWxmI2p1bWJmPS9jMnBhL3VybjpjMnBhOjFmZjY4NTRlLTM3ZTgtNDFlMy05MDg3LTc3ZGZkMDY1NmJmZS9jMnBhLnNpZ25hdHVyZWppbnN0YW5jZUlEeCx4bXA6aWlkOjZlYzUwM2I5LTIwOGMtNDdkYS1hMmI0LTQwYWI0YmY4NjcwNXJjcmVhdGVkX2Fzc2VydGlvbnODomN1cmx4LXNlbGYjanVtYmY9YzJwYS5hc3NlcnRpb25zL2MycGEuaW5ncmVkaWVudC52M2RoYXNoWCBI5ierRmlpxtTfZm7HWKbAu2sJseKnnimQEyptiZ2xh6JjdXJseCpzZWxmI2p1bWJmPWMycGEuYXNzZXJ0aW9ucy9jMnBhLmFjdGlvbnMudjJkaGFzaFggouILoNsqhpUCwNgKcSb60VQsl9LqbNe3SlsD2Vb+QHuiY3VybHgpc2VsZiNqdW1iZj1jMnBhLmFzc2VydGlvbnMvYzJwYS5oYXNoLmRhdGFkaGFzaFggBkN74jyFuMLgaaqmkb83oj80C0t2x7Z4CO8lTeQpf7Z0Y2xhaW1fZ2VuZXJhdG9yX2luZm+jZG5hbWVvQW50aHJvcGljIEZpbGVzZ3ZlcnNpb25lMS4wLjBrc3BlY1ZlcnNpb25lMi40LjAAABA4anVtYgAAAChqdW1kYzJjcwARABCAAACqADibcQNjMnBhLnNpZ25hdHVyZQAAABAIY2JvctKEWQISogEmGCFZAgowggIGMIIBjaADAgECAhRA5aAK7sI50L64g/oGQgU9Z1UTADAKBggqhkjOPQQDAzBJMRcwFQYDVQQKEw5BbnRocm9waWMsIFBCQzEuMCwGA1UEAxMlQW50aHJvcGljIENvbnRlbnQgQ3JlZGVudGlhbHMgUm9vdCBDQTAeFw0yNjA4MDcxODQzNTZaFw0yODA4MDYxOTQzNTZaMEQxFzAVBgNVBAoTDkFudGhyb3BpYywgUEJDMSkwJwYDVQQDEyBBbnRocm9waWMgQ2xhdWRlIENvbnRlbnQgU2lnbmluZzBZMBMGByqGSM49AgEGCCqGSM49AwEHA0IABJh6CmvLUBgFFNU0vUKlOVtE6djd17L5SuwX0LemFisBM3dkd/3cyjxFA3Qo5S46fX0/ihY0VZ7mfb9KF703t5OjWDBWMA4GA1UdDwEB/wQEAwIHgDAVBgNVHSUEDjAMBgorBgEEAYPoXgIBMAwGA1UdEwEB/wQCMAAwHwYDVR0jBBgwFoAUzlHiBIFOZFsj+OPEz5o+nMHXXMIwCgYIKoZIzj0EAwMDZwAwZAIwMXMdFJ4BetLLVY7ORuE9noqbbAZOZn/aArXyTwFAZfKrPzxF2vPoJNf1+UCdg1XGAjBwX1zd9WGqYkqmL5SFqw1QySjr1zJfpJM9+1rdDwSPLMOPOjKuiXjoU/pUUeG9RwmhY3BhZFkNngAAAAAAAAAAAAAAAAAAAAAAAAAAAAAAAAAAAAAAAAAAAAAAAAAAAAAAAAAAAAAAAAAAAAAAAAAAAAAAAAAAAAAAAAAAAAAAAAAAAAAAAAAAAAAAAAAAAAAAAAAAAAAAAAAAAAAAAAAAAAAAAAAAAAAAAAAAAAAAAAAAAAAAAAAAAAAAAAAAAAAAAAAAAAAAAAAAAAAAAAAAAAAAAAAAAAAAAAAAAAAAAAAAAAAAAAAAAAAAAAAAAAAAAAAAAAAAAAAAAAAAAAAAAAAAAAAAAAAAAAAAAAAAAAAAAAAAAAAAAAAAAAAAAAAAAAAAAAAAAAAAAAAAAAAAAAAAAAAAAAAAAAAAAAAAAAAAAAAAAAAAAAAAAAAAAAAAAAAAAAAAAAAAAAAAAAAAAAAAAAAAAAAAAAAAAAAAAAAAAAAAAAAAAAAAAAAAAAAAAAAAAAAAAAAAAAAAAAAAAAAAAAAAAAAAAAAAAAAAAAAAAAAAAAAAAAAAAAAAAAAAAAAAAAAAAAAAAAAAAAAAAAAAAAAAAAAAAAAAAAAAAAAAAAAAAAAAAAAAAAAAAAAAAAAAAAAAAAAAAAAAAAAAAAAAAAAAAAAAAAAAAAAAAAAAAAAAAAAAAAAAAAAAAAAAAAAAAAAAAAAAAAAAAAAAAAAAAAAAAAAAAAAAAAAAAAAAAAAAAAAAAAAAAAAAAAAAAAAAAAAAAAAAAAAAAAAAAAAAAAAAAAAAAAAAAAAAAAAAAAAAAAAAAAAAAAAAAAAAAAAAAAAAAAAAAAAAAAAAAAAAAAAAAAAAAAAAAAAAAAAAAAAAAAAAAAAAAAAAAAAAAAAAAAAAAAAAAAAAAAAAAAAAAAAAAAAAAAAAAAAAAAAAAAAAAAAAAAAAAAAAAAAAAAAAAAAAAAAAAAAAAAAAAAAAAAAAAAAAAAAAAAAAAAAAAAAAAAAAAAAAAAAAAAAAAAAAAAAAAAAAAAAAAAAAAAAAAAAAAAAAAAAAAAAAAAAAAAAAAAAAAAAAAAAAAAAAAAAAAAAAAAAAAAAAAAAAAAAAAAAAAAAAAAAAAAAAAAAAAAAAAAAAAAAAAAAAAAAAAAAAAAAAAAAAAAAAAAAAAAAAAAAAAAAAAAAAAAAAAAAAAAAAAAAAAAAAAAAAAAAAAAAAAAAAAAAAAAAAAAAAAAAAAAAAAAAAAAAAAAAAAAAAAAAAAAAAAAAAAAAAAAAAAAAAAAAAAAAAAAAAAAAAAAAAAAAAAAAAAAAAAAAAAAAAAAAAAAAAAAAAAAAAAAAAAAAAAAAAAAAAAAAAAAAAAAAAAAAAAAAAAAAAAAAAAAAAAAAAAAAAAAAAAAAAAAAAAAAAAAAAAAAAAAAAAAAAAAAAAAAAAAAAAAAAAAAAAAAAAAAAAAAAAAAAAAAAAAAAAAAAAAAAAAAAAAAAAAAAAAAAAAAAAAAAAAAAAAAAAAAAAAAAAAAAAAAAAAAAAAAAAAAAAAAAAAAAAAAAAAAAAAAAAAAAAAAAAAAAAAAAAAAAAAAAAAAAAAAAAAAAAAAAAAAAAAAAAAAAAAAAAAAAAAAAAAAAAAAAAAAAAAAAAAAAAAAAAAAAAAAAAAAAAAAAAAAAAAAAAAAAAAAAAAAAAAAAAAAAAAAAAAAAAAAAAAAAAAAAAAAAAAAAAAAAAAAAAAAAAAAAAAAAAAAAAAAAAAAAAAAAAAAAAAAAAAAAAAAAAAAAAAAAAAAAAAAAAAAAAAAAAAAAAAAAAAAAAAAAAAAAAAAAAAAAAAAAAAAAAAAAAAAAAAAAAAAAAAAAAAAAAAAAAAAAAAAAAAAAAAAAAAAAAAAAAAAAAAAAAAAAAAAAAAAAAAAAAAAAAAAAAAAAAAAAAAAAAAAAAAAAAAAAAAAAAAAAAAAAAAAAAAAAAAAAAAAAAAAAAAAAAAAAAAAAAAAAAAAAAAAAAAAAAAAAAAAAAAAAAAAAAAAAAAAAAAAAAAAAAAAAAAAAAAAAAAAAAAAAAAAAAAAAAAAAAAAAAAAAAAAAAAAAAAAAAAAAAAAAAAAAAAAAAAAAAAAAAAAAAAAAAAAAAAAAAAAAAAAAAAAAAAAAAAAAAAAAAAAAAAAAAAAAAAAAAAAAAAAAAAAAAAAAAAAAAAAAAAAAAAAAAAAAAAAAAAAAAAAAAAAAAAAAAAAAAAAAAAAAAAAAAAAAAAAAAAAAAAAAAAAAAAAAAAAAAAAAAAAAAAAAAAAAAAAAAAAAAAAAAAAAAAAAAAAAAAAAAAAAAAAAAAAAAAAAAAAAAAAAAAAAAAAAAAAAAAAAAAAAAAAAAAAAAAAAAAAAAAAAAAAAAAAAAAAAAAAAAAAAAAAAAAAAAAAAAAAAAAAAAAAAAAAAAAAAAAAAAAAAAAAAAAAAAAAAAAAAAAAAAAAAAAAAAAAAAAAAAAAAAAAAAAAAAAAAAAAAAAAAAAAAAAAAAAAAAAAAAAAAAAAAAAAAAAAAAAAAAAAAAAAAAAAAAAAAAAAAAAAAAAAAAAAAAAAAAAAAAAAAAAAAAAAAAAAAAAAAAAAAAAAAAAAAAAAAAAAAAAAAAAAAAAAAAAAAAAAAAAAAAAAAAAAAAAAAAAAAAAAAAAAAAAAAAAAAAAAAAAAAAAAAAAAAAAAAAAAAAAAAAAAAAAAAAAAAAAAAAAAAAAAAAAAAAAAAAAAAAAAAAAAAAAAAAAAAAAAAAAAAAAAAAAAAAAAAAAAAAAAAAAAAAAAAAAAAAAAAAAAAAAAAAAAAAAAAAAAAAAAAAAAAAAAAAAAAAAAAAAAAAAAAAAAAAAAAAAAAAAAAAAAAAAAAAAAAAAAAAAAAAAAAAAAAAAAAAAAAAAAAAAAAAAAAAAAAAAAAAAAAAAAAAAAAAAAAAAAAAAAAAAAAAAAAAAAAAAAAAAAAAAAAAAAAAAAAAAAAAAAAAAAAAAAAAAAAAAAAAAAAAAAAAAAAAAAAAAAAAAAAAAAAAAAAAAAAAAAAAAAAAAAAAAAAAAAAAAAAAAAAAAAAAAAAAAAAAAAAAAAAAAAAAAAAAAAAAAAAAAAAAAAAAAAAAAAAAAAAAAAAAAAAAAAAAAAAAAAAAAAAAAAAAAAAAAAAAAAAAAAAAAAAAAAAAAAAAAAAAAAAAAAAAAAAAAAAAAAAAAAAAAAAAAAAAAAAAAAAAAAAAAAAAAAAAAAAAAAAAAAAAAAAAAAAAAAAAAAAAAAAAAAAAAAAAAAAAAAAAAAAAAAAAAAAAAAAAAAAAAAAAAAAAAAAAAAAAAAAAAAAAAAAAAAAAAAAAAAAAAAAAAAAAAAAAAAAAAAAAAAAAAAAAAAAAAAAAAAAAAAAAAAAAAAAAAAAAAAAAAAAAAAAAAAAAAAAAAAAAAAAAAAAAAAAAAAAAAAAAAAAAAAAAAAAAAAAAAAAAAAAAAAAAAAAAAAAAAAAAAAAAAAAAAAAAAAAAAAAAAAAAAAAAAAAAAAAAAAAAAAAAAAAAAAAAAAAAAAAAAAAAAAAAAAAAAAAAAAAAAAAAAAAAAAAAAAAAAAAAAAAAAAAAAAAAAAAAAAAAAAAAAAAAAAAAAAAAAAAAAAAAAAAAAAAAAAAAAAAAAAAAAAAAAAAAAAAAAAAAAAAAAAAAAAAAAAAAAAAAAAAAAAAAAAAAAAAAAAAAAAAAAAAAAAAAAAAAAAAAAAAAAAAAAAAAAAAAAAAAAAAAAAAAAAAAAAAAAAAAAAAAAAAAAAAAAAAAAAAAAAAAAAAAAAAAAAAAAAAAAAAAAAAAAAAAAAAAAAAAAAAAAAAAAAAAAAAAAAAAAAAAAAAAAAAAAAAAAAAAAAAAAAAAAAAAAAAAAAAAAAAAAAAAAAAAAAAAAAAAAAAAAAAAAAAAAAAAAAAAAAAAAAAAAAAAAAAAAAAAAAAAAAAAAAAAAAAAAAAAAAAAAAAAAAAAAAAAAAAAAAAAAAAAAAAAAAAAAAAAAAAAAAAAAAAAAAAAAAAAAAAAAAAAAAAAAAAAAAAAAAAAAAAAAAAAAAAAAAAAAAAAAAAAAAAAAAAAAAAAAAAAAAAAAAAAAAAAAAAAAAAAAAAAAAAAAAAAAAAAAAAAAAAAAAAAAAAAAAAAAAAAAAAAAAAAAAAAAAAAAAAAAAAAAAAAAAAAAAAAAAAAAAAAAAAAAAAAAAAAAAAAAAAAAAAAAAAAAAAAAAAAAAAAAAAAAAAAAAAAAAAAAAAAAAAAAAAAAAAAAAAAAAAAAAAAAAAAAAAAAAAAAAAAAAAAAAAAAAAAAAAAAAAAAAAAAAAAAAAAAAAAAAAAAAAAAAAAAAAAAAAAAAAAAAAAAAAAAAAAAAAAAAAAAAAAAAAAAAAAAAAAAAAAAAAAAAAAAAAAAAAAAAAAAAAAAAAAAAAAAAAAAAAAAAAAAAAAAAAAAAAAAAAAAAAAAAAAAAAAAAAAAAAAAAAAAAAAAAAAAAAAAAAAAAAAAAAAAAAAAAAAAAAAAAAAAAAAAAAAAAAAAAAAAAAAAAAAAAAAAAAAAAAAAAAAAAAAAAAAAAAAAAAAAAAAAAAAAAAAAAAAAAAAAAAAAAAAAAAAAAAAAAAAAAAAAAAAAAAAAAAAAAAAAAAAAAAAAAAAAAAAAAAAAAAAAAAAAAAAAAAAAAAAAAAAAAAAAAAAAAAAAAAAAAAAAAAAAAAAAAAAAAAAAAAAAAAAAAAAAAAAAAAAAAAAPZYQAvVSEUaCJgkw9Xn24WDnL60TPe+9m0Kfct52+Xk5rlYy97AiVLQqYY45SVkCazjDlvmX9sTh7sDw6oE7c7vvQ8=</c2pa:manifest></metadata>
<g clip-path="url(#clip0_1_25023)">
<path d="M0.33 373.21L0 82.0305C0 82.0305 1.98 0.000475562 82.03 0.000475562H388.51C388.51 0.000475562 470.54 -0.949524 470.54 82.0705C470.54 165.09 470.38 373.02 470.38 373.02C470.38 373.02 471.45 455.05 388.35 455.05H82.36C82.36 455.05 0.33 456.94 0.33 373.21Z" fill="#E10C14"></path>
<g opacity="0.28">
<path d="M406.53 158.93L165.74 19.9203C155.26 13.8703 142.34 13.8703 131.85 19.9203C121.37 25.9703 114.91 37.1603 114.91 49.2603V308.08L182.68 268.95V107.96L372.65 217.63C388.85 226.99 409.58 221.43 418.93 205.22C428.29 189.01 422.74 168.28 406.53 158.93Z" fill="url(#paint0_linear_1_25023)"></path>
<path d="M406.53 237.431L182.68 108.181V186.431L321.81 266.771L131.85 376.441C115.64 385.801 110.1 406.541 119.45 422.741C125.73 433.601 137.12 439.691 148.83 439.691C154.58 439.691 160.41 438.231 165.74 435.151L406.53 296.131C417.02 290.081 423.48 278.891 423.48 266.791C423.48 254.691 417.01 243.491 406.53 237.451V237.431Z" fill="url(#paint1_linear_1_25023)"></path>
<path d="M321.81 266.77L254.13 227.69L114.84 308.11V88.7601C114.84 70.0401 99.6703 54.8701 80.9603 54.8701C62.2503 54.8701 47.0703 70.0401 47.0703 88.7601V366.8C47.0703 378.91 53.5403 390.1 64.0203 396.15C69.2603 399.18 75.1103 400.69 80.9703 400.69C86.8303 400.69 92.6603 399.18 97.9003 396.15L130.42 377.38C130.9 377.07 131.36 376.74 131.86 376.44L321.82 266.77H321.81Z" fill="url(#paint2_linear_1_25023)"></path>
</g>
<path d="M147.25 166.41C149.93 166.41 151.93 166.41 153.94 166.41C163.36 166.41 172.81 166.04 182.2 166.55C187.93 166.86 190.31 165.39 191.72 159.4C196.9 137.42 217.72 123.68 241.11 125.98C262.36 128.07 279.36 146.62 280.72 169.2C281.99 190.29 266.64 210.57 245.65 215.15C241.35 216.09 236.84 216.25 232.41 216.4C226.47 216.6 220.51 216.45 214.22 216.45C214.01 220.4 213.83 223.75 213.63 227.39H205.31V207.31C208.35 207.31 211.52 207.31 214.69 207.31C221.54 207.31 228.4 207.36 235.25 207.29C255.51 207.09 271.63 191.03 271.68 171.06C271.73 151.34 255.79 135.11 235.9 134.63C216.59 134.16 200.14 149.68 199.02 169.43C198.92 171.26 198.82 173.1 198.71 175.2C197.03 175.31 195.7 175.47 194.37 175.47C177.24 175.49 160.1 175.39 142.97 175.55C139.31 175.58 137.91 174.76 137.89 170.74C137.68 120.68 177.59 77.2602 227.32 73.6702C278.86 69.9502 324.51 106.11 331.62 156.28C338.15 202.36 313.68 244.76 270.39 261.94C266.67 263.42 265.63 265.26 265.74 269.05C266.01 278.63 265.83 288.21 265.83 298.21H205.34C205.18 296.94 204.88 295.64 204.87 294.34C204.84 277.72 204.92 261.1 204.79 244.48C204.76 241.1 205.52 239.52 209.31 239.54C212.96 239.56 214.02 240.87 213.98 244.38C213.83 257.4 213.92 270.42 213.92 283.44C213.92 285.27 213.92 287.1 213.92 289.15C215.54 289.31 216.53 289.48 217.52 289.49C230.34 289.51 243.17 289.5 256.85 289.5C256.85 281.34 256.85 273.54 256.85 265.74C256.85 260.06 259.457 256.314 264.67 254.5C303.92 240.84 329.47 198.78 322.86 158.74C315.51 114.3 280.12 83.0502 236.62 82.5902C191.64 82.1202 153.6 114.9 147.68 159.26C147.41 161.28 147.42 163.34 147.25 166.38V166.41Z" fill="white" stroke="white" stroke-width="4" stroke-miterlimit="10"></path>
<path d="M265.5 352.62H256.85C256.85 346.6 256.67 340.67 256.92 334.75C257.08 331.04 256.03 329.61 252.05 329.69C240.75 329.94 229.43 329.82 218.12 329.75C215.55 329.74 213.87 330.14 213.9 333.32C214.02 345.83 213.99 358.34 214.04 370.84C214.04 371.31 214.36 371.77 214.64 372.53H256.39C256.66 370.19 256.93 367.9 257.24 365.28H265.56V381.64H205.19V321.11H265.5V352.62Z" fill="white" stroke="white" stroke-width="4" stroke-miterlimit="10"></path>
</g>
<defs>
<linearGradient id="paint0_linear_1_25023" x1="290.38" y1="282.02" x2="141.98" y2="14.2903" gradientUnits="userSpaceOnUse">
<stop offset="0.17" stop-color="white" stop-opacity="0"></stop>
<stop offset="0.28" stop-color="white" stop-opacity="0.26"></stop>
<stop offset="0.39" stop-color="white" stop-opacity="0.49"></stop>
<stop offset="0.5" stop-color="white" stop-opacity="0.67"></stop>
<stop offset="0.6" stop-color="white" stop-opacity="0.81"></stop>
<stop offset="0.69" stop-color="white" stop-opacity="0.92"></stop>
<stop offset="0.78" stop-color="white" stop-opacity="0.98"></stop>
<stop offset="0.84" stop-color="white"></stop>
</linearGradient>
<linearGradient id="paint1_linear_1_25023" x1="114.9" y1="273.931" x2="423.48" y2="273.931" gradientUnits="userSpaceOnUse">
<stop offset="0.17" stop-color="white" stop-opacity="0"></stop>
<stop offset="0.28" stop-color="white" stop-opacity="0.26"></stop>
<stop offset="0.39" stop-color="white" stop-opacity="0.49"></stop>
<stop offset="0.5" stop-color="white" stop-opacity="0.67"></stop>
<stop offset="0.6" stop-color="white" stop-opacity="0.81"></stop>
<stop offset="0.69" stop-color="white" stop-opacity="0.92"></stop>
<stop offset="0.78" stop-color="white" stop-opacity="0.98"></stop>
<stop offset="0.84" stop-color="white"></stop>
</linearGradient>
<linearGradient id="paint2_linear_1_25023" x1="212.65" y1="107.84" x2="86.1603" y2="405.83" gradientUnits="userSpaceOnUse">
<stop offset="0.17" stop-color="white" stop-opacity="0"></stop>
<stop offset="0.28" stop-color="white" stop-opacity="0.26"></stop>
<stop offset="0.39" stop-color="white" stop-opacity="0.49"></stop>
<stop offset="0.5" stop-color="white" stop-opacity="0.67"></stop>
<stop offset="0.6" stop-color="white" stop-opacity="0.81"></stop>
<stop offset="0.69" stop-color="white" stop-opacity="0.92"></stop>
<stop offset="0.78" stop-color="white" stop-opacity="0.98"></stop>
<stop offset="0.84" stop-color="white"></stop>
</linearGradient>
<clipPath id="clip0_1_25023">
<rect width="470.55" height="455.06" fill="white"></rect>
</clipPath>
</defs>
</svg>