<svg width="471" height="471" viewBox="0 0 471 471" fill="none" xmlns="http://www.w3.org/2000/svg" xmlns:c2pa="http://c2pa.org/manifest"><metadata><c2pa:manifest>AAAWgmp1bWIAAAAeanVtZGMycGEAEQAQgAAAqgA4m3EDYzJwYQAAABZcanVtYgAAAEdqdW1kYzJtYQARABCAAACqADibcQN1cm46YzJwYTowZmNjMGU4Mi0zZTMxLTRlM2ItYjM5ZC04YTA1OTA0ZGFjMzIAAAADl2p1bWIAAAApanVtZGMyYXMAEQAQgAAAqgA4m3EDYzJwYS5hc3NlcnRpb25zAAAAALxqdW1iAAAARGp1bWRjYm9yABEAEIAAAKoAOJtxE2MycGEuaW5ncmVkaWVudC52MwAAAAAYYzJzaBgQ54mLU6jqTc4Z11tB8RgAAABwY2JvcqNpZGM6Zm9ybWF0bWltYWdlL3N2Zyt4bWxqaW5zdGFuY2VJRHgseG1wOmlpZDo3ZTcyYjJiYi01NzI2LTQyYzctOGIwYy0yMTE0YWZiZjFiYWZscmVsYXRpb25zaGlwaHBhcmVudE9mAAAB4mp1bWIAAABBanVtZGNib3IAEQAQgAAAqgA4m3ETYzJwYS5hY3Rpb25zLnYyAAAAABhjMnNoDWlbdJFQpalpkh1ZjPHFaQAAAZljYm9yomdhY3Rpb25zgqJmYWN0aW9ua2MycGEub3BlbmVkanBhcmFtZXRlcnOha2luZ3JlZGllbnRzgaJjdXJseC1zZWxmI2p1bWJmPWMycGEuYXNzZXJ0aW9ucy9jMnBhLmluZ3JlZGllbnQudjNkaGFzaFgg60BexTnF1dSjr7wIU4Xa4NxD1S1bMdkWM81rQ3U+2HikZmFjdGlvbngdY29tLmFudGhyb3BpYy5jbGF1ZGUucHJvdmlkZWRqcGFyYW1ldGVyc6F4H2NvbS5hbnRocm9waWMub3JpZ2luLWNvbmZpZGVuY2VndW5rbm93bmtkZXNjcmlwdGlvbnhmQ2xhdWRlIHByb3ZpZGVkIHRoaXMgZmlsZSBhdCB0aGUgcmVxdWVzdCBvZiBhIHVzZXIgYW5kIG1heSBoYXZlIGNyZWF0ZWQgb3IgbW9kaWZpZWQgdGhlIGZpbGUgY29udGVudHMubXNvZnR3YXJlQWdlbnShZG5hbWVmQ2xhdWRlcmFsbEFjdGlvbnNJbmNsdWRlZPUAAADIanVtYgAAAEBqdW1kY2JvcgARABCAAACqADibcRNjMnBhLmhhc2guZGF0YQAAAAAYYzJzaNM/0J0KyMyS5XAJpulQsOQAAACAY2JvcqVjYWxnZnNoYTI1NmNwYWRNAAAAAAAAAAAAAAAAAGRoYXNoWCANLcYQjL/TI4gniBZ5bwOVB4f1PA7hgLZUiSSGNwg7H2RuYW1lbmp1bWJmIG1hbmlmZXN0amV4Y2x1c2lvbnOBomVzdGFydBiiZmxlbmd0aBkeBAAAAj5qdW1iAAAAJ2p1bWRjMmNsABEAEIAAAKoAOJtxA2MycGEuY2xhaW0udjIAAAACD2Nib3KlY2FsZ2ZzaGEyNTZpc2lnbmF0dXJleE1zZWxmI2p1bWJmPS9jMnBhL3VybjpjMnBhOjBmY2MwZTgyLTNlMzEtNGUzYi1iMzlkLThhMDU5MDRkYWMzMi9jMnBhLnNpZ25hdHVyZWppbnN0YW5jZUlEeCx4bXA6aWlkOmIzZWRlYzJhLTI2YjYtNGZlMi1hYTVkLTRkZjljNTdlYzNlOHJjcmVhdGVkX2Fzc2VydGlvbnODomN1cmx4LXNlbGYjanVtYmY9YzJwYS5hc3NlcnRpb25zL2MycGEuaW5ncmVkaWVudC52M2RoYXNoWCDrQF7FOcXV1KOvvAhThdrg3EPVLVsx2RYzzWtDdT7YeKJjdXJseCpzZWxmI2p1bWJmPWMycGEuYXNzZXJ0aW9ucy9jMnBhLmFjdGlvbnMudjJkaGFzaFggeRm/JSHyDW5nB2nkregf6lHmaE9DIo0dQFZ850stygaiY3VybHgpc2VsZiNqdW1iZj1jMnBhLmFzc2VydGlvbnMvYzJwYS5oYXNoLmRhdGFkaGFzaFgg9/JjLB7+j5taAUgcfs3W3nIRdfnMgktJcywnIXAcNn10Y2xhaW1fZ2VuZXJhdG9yX2luZm+jZG5hbWVvQW50aHJvcGljIEZpbGVzZ3ZlcnNpb25lMS4wLjBrc3BlY1ZlcnNpb25lMi40LjAAABA4anVtYgAAAChqdW1kYzJjcwARABCAAACqADibcQNjMnBhLnNpZ25hdHVyZQAAABAIY2JvctKEWQISogEmGCFZAgowggIGMIIBjaADAgECAhRA5aAK7sI50L64g/oGQgU9Z1UTADAKBggqhkjOPQQDAzBJMRcwFQYDVQQKEw5BbnRocm9waWMsIFBCQzEuMCwGA1UEAxMlQW50aHJvcGljIENvbnRlbnQgQ3JlZGVudGlhbHMgUm9vdCBDQTAeFw0yNjA4MDcxODQzNTZaFw0yODA4MDYxOTQzNTZaMEQxFzAVBgNVBAoTDkFudGhyb3BpYywgUEJDMSkwJwYDVQQDEyBBbnRocm9waWMgQ2xhdWRlIENvbnRlbnQgU2lnbmluZzBZMBMGByqGSM49AgEGCCqGSM49AwEHA0IABJh6CmvLUBgFFNU0vUKlOVtE6djd17L5SuwX0LemFisBM3dkd/3cyjxFA3Qo5S46fX0/ihY0VZ7mfb9KF703t5OjWDBWMA4GA1UdDwEB/wQEAwIHgDAVBgNVHSUEDjAMBgorBgEEAYPoXgIBMAwGA1UdEwEB/wQCMAAwHwYDVR0jBBgwFoAUzlHiBIFOZFsj+OPEz5o+nMHXXMIwCgYIKoZIzj0EAwMDZwAwZAIwMXMdFJ4BetLLVY7ORuE9noqbbAZOZn/aArXyTwFAZfKrPzxF2vPoJNf1+UCdg1XGAjBwX1zd9WGqYkqmL5SFqw1QySjr1zJfpJM9+1rdDwSPLMOPOjKuiXjoU/pUUeG9RwmhY3BhZFkNngAAAAAAAAAAAAAAAAAAAAAAAAAAAAAAAAAAAAAAAAAAAAAAAAAAAAAAAAAAAAAAAAAAAAAAAAAAAAAAAAAAAAAAAAAAAAAAAAAAAAAAAAAAAAAAAAAAAAAAAAAAAAAAAAAAAAAAAAAAAAAAAAAAAAAAAAAAAAAAAAAAAAAAAAAAAAAAAAAAAAAAAAAAAAAAAAAAAAAAAAAAAAAAAAAAAAAAAAAAAAAAAAAAAAAAAAAAAAAAAAAAAAAAAAAAAAAAAAAAAAAAAAAAAAAAAAAAAAAAAAAAAAAAAAAAAAAAAAAAAAAAAAAAAAAAAAAAAAAAAAAAAAAAAAAAAAAAAAAAAAAAAAAAAAAAAAAAAAAAAAAAAAAAAAAAAAAAAAAAAAAAAAAAAAAAAAAAAAAAAAAAAAAAAAAAAAAAAAAAAAAAAAAAAAAAAAAAAAAAAAAAAAAAAAAAAAAAAAAAAAAAAAAAAAAAAAAAAAAAAAAAAAAAAAAAAAAAAAAAAAAAAAAAAAAAAAAAAAAAAAAAAAAAAAAAAAAAAAAAAAAAAAAAAAAAAAAAAAAAAAAAAAAAAAAAAAAAAAAAAAAAAAAAAAAAAAAAAAAAAAAAAAAAAAAAAAAAAAAAAAAAAAAAAAAAAAAAAAAAAAAAAAAAAAAAAAAAAAAAAAAAAAAAAAAAAAAAAAAAAAAAAAAAAAAAAAAAAAAAAAAAAAAAAAAAAAAAAAAAAAAAAAAAAAAAAAAAAAAAAAAAAAAAAAAAAAAAAAAAAAAAAAAAAAAAAAAAAAAAAAAAAAAAAAAAAAAAAAAAAAAAAAAAAAAAAAAAAAAAAAAAAAAAAAAAAAAAAAAAAAAAAAAAAAAAAAAAAAAAAAAAAAAAAAAAAAAAAAAAAAAAAAAAAAAAAAAAAAAAAAAAAAAAAAAAAAAAAAAAAAAAAAAAAAAAAAAAAAAAAAAAAAAAAAAAAAAAAAAAAAAAAAAAAAAAAAAAAAAAAAAAAAAAAAAAAAAAAAAAAAAAAAAAAAAAAAAAAAAAAAAAAAAAAAAAAAAAAAAAAAAAAAAAAAAAAAAAAAAAAAAAAAAAAAAAAAAAAAAAAAAAAAAAAAAAAAAAAAAAAAAAAAAAAAAAAAAAAAAAAAAAAAAAAAAAAAAAAAAAAAAAAAAAAAAAAAAAAAAAAAAAAAAAAAAAAAAAAAAAAAAAAAAAAAAAAAAAAAAAAAAAAAAAAAAAAAAAAAAAAAAAAAAAAAAAAAAAAAAAAAAAAAAAAAAAAAAAAAAAAAAAAAAAAAAAAAAAAAAAAAAAAAAAAAAAAAAAAAAAAAAAAAAAAAAAAAAAAAAAAAAAAAAAAAAAAAAAAAAAAAAAAAAAAAAAAAAAAAAAAAAAAAAAAAAAAAAAAAAAAAAAAAAAAAAAAAAAAAAAAAAAAAAAAAAAAAAAAAAAAAAAAAAAAAAAAAAAAAAAAAAAAAAAAAAAAAAAAAAAAAAAAAAAAAAAAAAAAAAAAAAAAAAAAAAAAAAAAAAAAAAAAAAAAAAAAAAAAAAAAAAAAAAAAAAAAAAAAAAAAAAAAAAAAAAAAAAAAAAAAAAAAAAAAAAAAAAAAAAAAAAAAAAAAAAAAAAAAAAAAAAAAAAAAAAAAAAAAAAAAAAAAAAAAAAAAAAAAAAAAAAAAAAAAAAAAAAAAAAAAAAAAAAAAAAAAAAAAAAAAAAAAAAAAAAAAAAAAAAAAAAAAAAAAAAAAAAAAAAAAAAAAAAAAAAAAAAAAAAAAAAAAAAAAAAAAAAAAAAAAAAAAAAAAAAAAAAAAAAAAAAAAAAAAAAAAAAAAAAAAAAAAAAAAAAAAAAAAAAAAAAAAAAAAAAAAAAAAAAAAAAAAAAAAAAAAAAAAAAAAAAAAAAAAAAAAAAAAAAAAAAAAAAAAAAAAAAAAAAAAAAAAAAAAAAAAAAAAAAAAAAAAAAAAAAAAAAAAAAAAAAAAAAAAAAAAAAAAAAAAAAAAAAAAAAAAAAAAAAAAAAAAAAAAAAAAAAAAAAAAAAAAAAAAAAAAAAAAAAAAAAAAAAAAAAAAAAAAAAAAAAAAAAAAAAAAAAAAAAAAAAAAAAAAAAAAAAAAAAAAAAAAAAAAAAAAAAAAAAAAAAAAAAAAAAAAAAAAAAAAAAAAAAAAAAAAAAAAAAAAAAAAAAAAAAAAAAAAAAAAAAAAAAAAAAAAAAAAAAAAAAAAAAAAAAAAAAAAAAAAAAAAAAAAAAAAAAAAAAAAAAAAAAAAAAAAAAAAAAAAAAAAAAAAAAAAAAAAAAAAAAAAAAAAAAAAAAAAAAAAAAAAAAAAAAAAAAAAAAAAAAAAAAAAAAAAAAAAAAAAAAAAAAAAAAAAAAAAAAAAAAAAAAAAAAAAAAAAAAAAAAAAAAAAAAAAAAAAAAAAAAAAAAAAAAAAAAAAAAAAAAAAAAAAAAAAAAAAAAAAAAAAAAAAAAAAAAAAAAAAAAAAAAAAAAAAAAAAAAAAAAAAAAAAAAAAAAAAAAAAAAAAAAAAAAAAAAAAAAAAAAAAAAAAAAAAAAAAAAAAAAAAAAAAAAAAAAAAAAAAAAAAAAAAAAAAAAAAAAAAAAAAAAAAAAAAAAAAAAAAAAAAAAAAAAAAAAAAAAAAAAAAAAAAAAAAAAAAAAAAAAAAAAAAAAAAAAAAAAAAAAAAAAAAAAAAAAAAAAAAAAAAAAAAAAAAAAAAAAAAAAAAAAAAAAAAAAAAAAAAAAAAAAAAAAAAAAAAAAAAAAAAAAAAAAAAAAAAAAAAAAAAAAAAAAAAAAAAAAAAAAAAAAAAAAAAAAAAAAAAAAAAAAAAAAAAAAAAAAAAAAAAAAAAAAAAAAAAAAAAAAAAAAAAAAAAAAAAAAAAAAAAAAAAAAAAAAAAAAAAAAAAAAAAAAAAAAAAAAAAAAAAAAAAAAAAAAAAAAAAAAAAAAAAAAAAAAAAAAAAAAAAAAAAAAAAAAAAAAAAAAAAAAAAAAAAAAAAAAAAAAAAAAAAAAAAAAAAAAAAAAAAAAAAAAAAAAAAAAAAAAAAAAAAAAAAAAAAAAAAAAAAAAAAAAAAAAAAAAAAAAAAAAAAAAAAAAAAAAAAAAAAAAAAAAAAAAAAAAAAAAAAAAAAAAAAAAAAAAAAAAAAAAAAAAAAAAAAAAAAAAAAAAAAAAAAAAAAAAAAAAAAAAAAAAAAAAAAAAAAAAAAAAAAAAAAAAAAAAAAAAAAAAAAAAAAAAAAAAAAAAAAAAAAAAAAAAAAAAAAAAAAAAAAAAAAAAAAAAAAAAAAAAAAAAAAAAAAAAAAAAAAAAAAAAAAAAAAAAAAAAAAAAAAAAAAAAAAAAAAAAAAAAAAAAAAAAAAAAAAAAAAAAAAAAAAAAAAAAAAAAAAAAAAAAAAAAAAAAAAAAAAAAAAAAAAAAAAAAAAAAAAAAAAAAAAAAAAAAAAAAAAAAAAAAAAAAAAAAAAAAAAAAAAAAAAAAAAAAAAAAAAAAAAAAAAAAAAAAAAAAAAAAAAAAAAAAAAAAAAAAAAAAAAAAAAAAAAAAAAAAAAAAAAAAAAAAAAAAAAAAAAAAAAAAAAAAAAAAAAAAAAAAAAAAAAAAAAAAAAAAAAAAAAAAAAAAAAAAAAAAAAAAAAAAAAAAAAAAAAAAAAAAAAAAAAAAAAAAAAAAAAAAAAAAAAAAAAAAAAAAAAAAAAAAAAAAAAAAAAAAAAAAAAAAAAAAAAAAAAAAAAAAAAAAAAAAAAAAAAAAAAAAAAAAAAAAAAAAAAAAAAAAAAAAAAAAAAAAAAAAAAAAAAAAAAAAAAAAAAAAAAAAAAAAAAAAAAAAAAAAAAAAAAAAAAAAAAAAAAAAAAAAAAAAAAAAAAAAAAAAAAAAAAAAAAAAAAAAAAAAAAAAAAAAAAAAAAAAAAAAAAAAAAAAAAAAAAAAAAAAAAAAAAAAAAAAAAAAAAAAAAAAAAAAAAAAAAAAAAAAAAAAAAAAAAAAAAAAAAAAAAAAAAAAAAAAAAAAAAAAAAAAAAAAAAAAAAAAAAAAAAAAAAAAAAAAAAAAAAAAAAAAAAAAAAAAAAAAAAAAAAAAAAAAAAAAAAAAAAAAAAAAAAAAAAAAAAAAAAAAAAAAAAAAAAAAAAAAAAAAAAAAAAAAAAAAAAAAAAAAAAAAAAAAAAAAAAAAAAAAAAAAAAAAAAAAAAAAAAAAAAAAAAAAAAAAAAAAAAAAAAAAAAAAAAAAAAAAAAAAAAAAAAAAAAAAAAAAAAAAAAAAAAAAAAAAAAAAAAAAAAAAAAAAAAAAAAAAAAAAAAAAAAAAAAAAAAAAAAAAAAAAAAAAAAAAAAAAAAAAAAAAAAAAAAAAAAAAAAAAAAAAAAAAAAAAAAAAAAAAAAAAAAAAAAAAAAAAAAAAAAAAAAAAAAAAAAAAAAAAAAAAAAAAAAAAAAAAAAAAAAAAAAAAAAAAAAAAAAAAAAAAAAAAAAAAAAAAAAAAAAAAAAAAAAAAAAAAAAAAAAAAAAAAAAAAAAAAAAAAAAAAAAAAAAAAAAAAAAAAAAAAAAAAAAAAAAAAAAAAAAAAAAAAAAAAAAAAAAAAAAAAAAAAAAAAAAAAAAAAAAAAAAAAAAAAAAAAAAAAAAAAAAAAAAAAAAAAAAAAAAAAAAAAAAAAAAAAAAAAAAAAAAAAAAAAAAAAAAAAAAAAAAAAAAAAAAAAAAAAAAAAAAPZYQCDJ481Gum8SEZGMsCG5VREeIqr5gnhEXdNwPxjozPIUNwkMr005dL/MNRZ/nQSCTfNvYbt4NjP124YynDJwow4=</c2pa:manifest></metadata>
<g clip-path="url(#clip0_1_25158)">
<path d="M442.773 0H27.7775C12.4364 0 0 12.4364 0 27.7775V442.773C0 458.114 12.4364 470.55 27.7775 470.55H442.773C458.114 470.55 470.55 458.114 470.55 442.773V27.7775C470.55 12.4364 458.114 0 442.773 0Z" fill="#E10913"></path>
<path d="M405.956 167.941L165.395 23.5355C154.926 17.2512 142.018 17.2512 131.538 23.5355C121.068 29.82 114.614 41.4435 114.614 54.0122V322.859L182.32 282.214V114.986L372.108 228.906C388.293 238.628 409.003 232.852 418.344 216.014C427.695 199.176 422.15 177.643 405.956 167.931V167.941Z" fill="url(#paint0_linear_1_25158)" fill-opacity="0.75"></path>
<path d="M405.956 249.472L182.32 115.215V196.496L321.317 279.949L131.539 393.868C115.344 403.591 109.809 425.134 119.151 441.962C125.424 453.243 136.804 459.568 148.503 459.568C154.247 459.568 160.072 458.052 165.396 454.852L405.956 310.447C416.436 304.162 422.89 292.539 422.89 279.97C422.89 267.401 416.426 255.767 405.956 249.493V249.472Z" fill="url(#paint1_linear_1_25158)"></path>
<path d="M321.317 279.959L253.702 239.365L114.545 322.901V95.0528C114.545 75.6074 99.3894 59.8496 80.6975 59.8496C62.0053 59.8496 46.8398 75.6074 46.8398 95.0528V383.864C46.8398 396.444 53.3037 408.067 63.7736 414.351C69.0086 417.499 74.853 419.067 80.7071 419.067C86.5618 419.067 92.3863 417.499 97.6211 414.351L130.11 394.854C130.59 394.533 131.049 394.19 131.549 393.878L321.327 279.959H321.317Z" fill="url(#paint2_linear_1_25158)" fill-opacity="0.75"></path>
<path d="M293.508 349.665C352.576 348.571 400.645 300.308 401.532 241.193C402.457 179.672 352.711 129.319 291.426 129.319C235.085 129.319 188.494 171.883 182.085 226.565C181.905 228.083 180.6 229.216 179.07 229.216H164.504C162.692 229.216 161.297 227.633 161.483 225.826C168.329 160.143 223.996 108.754 291.426 108.754C363.485 108.754 422.095 167.406 422.095 239.502C422.095 311.597 363.485 370.248 291.426 370.248C223.989 370.248 168.323 318.859 161.477 253.17C161.29 251.363 162.685 249.781 164.498 249.781H179.064C180.594 249.781 181.899 250.919 182.079 252.437C188.571 307.795 236.235 350.719 293.502 349.658L293.508 349.665Z" fill="#FDFDFD"></path>
<path d="M295.367 308.316C330.33 306.274 358.487 277.84 360.165 242.889C362.067 203.359 330.414 170.572 291.248 170.572C257.564 170.572 229.426 194.832 223.442 226.784C223.173 228.21 221.919 229.237 220.467 229.237H205.794C203.93 229.237 202.497 227.574 202.786 225.731C209.432 182.92 246.573 150.043 291.254 150.043C341.809 150.043 382.717 192.122 380.737 243.049C378.918 289.726 340.87 327.438 294.146 328.915C248.187 330.366 209.573 297.014 202.786 253.272C202.503 251.429 203.93 249.766 205.794 249.766H220.467C221.919 249.766 223.179 250.793 223.442 252.219C229.67 285.475 259.877 310.383 295.367 308.309V308.316Z" fill="#FDFDFD"></path>
<path d="M291.206 267.913C306.554 267.913 319.031 255.359 319.031 239.93C319.031 224.501 306.554 211.947 291.206 211.947C280.146 211.947 270.579 218.472 266.106 227.905C265.606 228.956 264.549 229.626 263.388 229.626H247.932C245.881 229.626 244.434 227.628 245.036 225.655C251.527 204.442 272.103 189.367 295.724 191.54C319.023 193.681 337.652 212.766 339.382 236.248C341.478 264.702 319.056 288.533 291.206 288.533C269.522 288.533 251.117 274.064 245.043 254.224C244.44 252.251 245.881 250.246 247.932 250.246H263.388C264.549 250.246 265.606 250.91 266.106 251.967C270.579 261.401 280.146 267.926 291.206 267.926V267.913Z" fill="#FDFDFD"></path>
<path d="M118.15 241.599C119.312 240.438 119.312 238.563 118.15 237.403L101.691 220.958C97.6589 216.943 97.6589 210.409 101.691 206.394C105.724 202.367 112.253 202.367 116.273 206.394L140.603 230.695C145.474 235.561 145.474 243.448 140.603 248.313L116.273 272.613C114.259 274.624 111.621 275.629 108.982 275.629C106.104 275.629 103.233 274.431 101.168 272.053C97.5946 267.928 98.0589 261.665 101.917 257.811L118.144 241.605L118.15 241.599Z" fill="#FDFDFD"></path>
<path d="M67.3994 241.599C68.5607 240.438 68.5607 238.563 67.3994 237.403L50.9404 220.958C46.9079 216.943 46.9079 210.409 50.9404 206.394C54.9729 202.367 61.5023 202.367 65.5219 206.394L89.8519 230.695C94.7233 235.561 94.7233 243.448 89.8519 248.313L65.5219 272.613C63.5089 274.624 60.87 275.629 58.2312 275.629C55.3536 275.629 52.4824 274.431 50.4178 272.053C46.8434 267.928 47.308 261.665 51.1663 257.811L67.3929 241.605L67.3994 241.599Z" fill="#FDFDFD"></path>
</g>
<defs>
<linearGradient id="paint0_linear_1_25158" x1="303.289" y1="242.333" x2="134.418" y2="23.2797" gradientUnits="userSpaceOnUse">
<stop offset="0.045" stop-color="#E10913"></stop>
<stop offset="0.551272" stop-color="#EA6546"></stop>
<stop offset="1" stop-color="#EA6546"></stop>
</linearGradient>
<linearGradient id="paint1_linear_1_25158" x1="114.615" y1="287.397" x2="422.9" y2="287.397" gradientUnits="userSpaceOnUse">
<stop offset="0.05" stop-color="#E10913" stop-opacity="0"></stop>
<stop offset="0.356936" stop-color="#EA6546" stop-opacity="0.472209"></stop>
<stop offset="0.7" stop-color="#EA6546"></stop>
<stop offset="1" stop-color="#EA6546"></stop>
</linearGradient>
<linearGradient id="paint2_linear_1_25158" x1="46.843" y1="239.464" x2="321.336" y2="239.464" gradientUnits="userSpaceOnUse">
<stop offset="0.05" stop-color="#E10913" stop-opacity="0"></stop>
<stop offset="0.356936" stop-color="#EA6546" stop-opacity="0.472209"></stop>
<stop offset="0.7" stop-color="#EA6546"></stop>
<stop offset="1" stop-color="#EA6546"></stop>
</linearGradient>
<clipPath id="clip0_1_25158">
<rect width="470.55" height="470.55" rx="70" fill="white"></rect>
</clipPath>
</defs>
</svg>